<svg xmlns="http://www.w3.org/2000/svg" viewBox="-300 -290 600 580"><defs><linearGradient id="face" x1="0" y1="0" x2="0.7" y2="1"><stop offset="0" stop-color="#34363b"></stop><stop offset="0.55" stop-color="#26282c"></stop><stop offset="1" stop-color="#191a1d"></stop></linearGradient>
<linearGradient id="bevel" x1="0" y1="0" x2="0" y2="1"><stop offset="0" stop-color="#585b62"></stop><stop offset="0.5" stop-color="#303236"></stop><stop offset="1" stop-color="#0d0e10"></stop></linearGradient>
<radialGradient id="g1"><stop offset="0" stop-color="#7dcd92" stop-opacity="0.95"></stop><stop offset="0.45" stop-color="#5fb877" stop-opacity="0.55"></stop><stop offset="1" stop-color="#5fb877" stop-opacity="0"></stop></radialGradient>
<radialGradient id="g2"><stop offset="0" stop-color="#e6ffee" stop-opacity="1"></stop><stop offset="0.35" stop-color="#a6ecbb" stop-opacity="0.9"></stop><stop offset="1" stop-color="#7dcd92" stop-opacity="0"></stop></radialGradient>
<filter id="ds" x="-30%" y="-30%" width="160%" height="160%"><feDropShadow dx="0" dy="7" stdDeviation="9" flood-color="#000" flood-opacity="0.55"></feDropShadow></filter>
<filter id="b1"><feGaussianBlur stdDeviation="11"></feGaussianBlur></filter><filter id="b2"><feGaussianBlur stdDeviation="4"></feGaussianBlur></filter></defs><g filter="url(#b1)"><circle cx="18" cy="-80" r="105" fill="url(#g1)"></circle><circle cx="-78" cy="72" r="105" fill="url(#g1)"></circle><ellipse cx="55" cy="-10" rx="70" ry="55" fill="url(#g1)"></ellipse></g><g filter="url(#b2)"><circle cx="14" cy="-82" r="55" fill="url(#g2)"></circle><circle cx="-80" cy="74" r="48" fill="url(#g2)"></circle></g><g filter="url(#ds)"><polygon points="-86.60,-243.00 -6.06,-196.50 -6.06,-103.50 -86.60,-57.00 -167.14,-103.50 -167.14,-196.50" fill="url(#face)" stroke="url(#bevel)" stroke-width="3.5" stroke-linejoin="round"></polygon><polygon points="86.60,-243.00 167.14,-196.50 167.14,-103.50 86.60,-57.00 6.06,-103.50 6.06,-196.50" fill="url(#face)" stroke="url(#bevel)" stroke-width="3.5" stroke-linejoin="round"></polygon><polygon points="-173.21,-93.00 -92.66,-46.50 -92.66,46.50 -173.21,93.00 -253.75,46.50 -253.75,-46.50" fill="url(#face)" stroke="url(#bevel)" stroke-width="3.5" stroke-linejoin="round"></polygon><polygon points="0.00,-93.00 80.54,-46.50 80.54,46.50 0.00,93.00 -80.54,46.50 -80.54,-46.50" fill="url(#face)" stroke="url(#bevel)" stroke-width="3.5" stroke-linejoin="round"></polygon><polygon points="173.21,-93.00 253.75,-46.50 253.75,46.50 173.21,93.00 92.66,46.50 92.66,-46.50" fill="url(#face)" stroke="url(#bevel)" stroke-width="3.5" stroke-linejoin="round"></polygon><polygon points="-86.60,57.00 -6.06,103.50 -6.06,196.50 -86.60,243.00 -167.14,196.50 -167.14,103.50" fill="url(#face)" stroke="url(#bevel)" stroke-width="3.5" stroke-linejoin="round"></polygon><polygon points="86.60,57.00 167.14,103.50 167.14,196.50 86.60,243.00 6.06,196.50 6.06,103.50" fill="url(#face)" stroke="url(#bevel)" stroke-width="3.5" stroke-linejoin="round"></polygon></g></svg>