<svg xmlns="http://www.w3.org/2000/svg" viewBox="0 0 552 669" width="552" height="669"><defs><linearGradient id="face" x1="0" y1="0" x2="0.7" y2="1"><stop offset="0" stop-color="#34363b"></stop><stop offset="0.55" stop-color="#26282c"></stop><stop offset="1" stop-color="#191a1d"></stop></linearGradient>
<linearGradient id="bevel" x1="0" y1="0" x2="0" y2="1"><stop offset="0" stop-color="#585b62"></stop><stop offset="0.5" stop-color="#303236"></stop><stop offset="1" stop-color="#0d0e10"></stop></linearGradient>
<radialGradient id="g1"><stop offset="0" stop-color="#7dcd92" stop-opacity="0.95"></stop><stop offset="0.45" stop-color="#5fb877" stop-opacity="0.55"></stop><stop offset="1" stop-color="#5fb877" stop-opacity="0"></stop></radialGradient>
<radialGradient id="g2"><stop offset="0" stop-color="#e6ffee" stop-opacity="1"></stop><stop offset="0.35" stop-color="#a6ecbb" stop-opacity="0.9"></stop><stop offset="1" stop-color="#7dcd92" stop-opacity="0"></stop></radialGradient>
<filter id="ds" x="-30%" y="-30%" width="160%" height="160%"><feDropShadow dx="0" dy="7" stdDeviation="9" flood-color="#000" flood-opacity="0.55"></feDropShadow></filter>
<filter id="b1"><feGaussianBlur stdDeviation="11"></feGaussianBlur></filter><filter id="b2"><feGaussianBlur stdDeviation="4"></feGaussianBlur></filter></defs><g transform="translate(46 46) scale(0.766667) translate(300 290)"><g filter="url(#b1)"><circle cx="18" cy="-80" r="105" fill="url(#g1)"></circle><circle cx="-78" cy="72" r="105" fill="url(#g1)"></circle><ellipse cx="55" cy="-10" rx="70" ry="55" fill="url(#g1)"></ellipse></g><g filter="url(#b2)"><circle cx="14" cy="-82" r="55" fill="url(#g2)"></circle><circle cx="-80" cy="74" r="48" fill="url(#g2)"></circle></g><g filter="url(#ds)"><polygon points="-86.60,-243.00 -6.06,-196.50 -6.06,-103.50 -86.60,-57.00 -167.14,-103.50 -167.14,-196.50" fill="url(#face)" stroke="url(#bevel)" stroke-width="3.5" stroke-linejoin="round"></polygon><polygon points="86.60,-243.00 167.14,-196.50 167.14,-103.50 86.60,-57.00 6.06,-103.50 6.06,-196.50" fill="url(#face)" stroke="url(#bevel)" stroke-width="3.5" stroke-linejoin="round"></polygon><polygon points="-173.21,-93.00 -92.66,-46.50 -92.66,46.50 -173.21,93.00 -253.75,46.50 -253.75,-46.50" fill="url(#face)" stroke="url(#bevel)" stroke-width="3.5" stroke-linejoin="round"></polygon><polygon points="0.00,-93.00 80.54,-46.50 80.54,46.50 0.00,93.00 -80.54,46.50 -80.54,-46.50" fill="url(#face)" stroke="url(#bevel)" stroke-width="3.5" stroke-linejoin="round"></polygon><polygon points="173.21,-93.00 253.75,-46.50 253.75,46.50 173.21,93.00 92.66,46.50 92.66,-46.50" fill="url(#face)" stroke="url(#bevel)" stroke-width="3.5" stroke-linejoin="round"></polygon><polygon points="-86.60,57.00 -6.06,103.50 -6.06,196.50 -86.60,243.00 -167.14,196.50 -167.14,103.50" fill="url(#face)" stroke="url(#bevel)" stroke-width="3.5" stroke-linejoin="round"></polygon><polygon points="86.60,57.00 167.14,103.50 167.14,196.50 86.60,243.00 6.06,196.50 6.06,103.50" fill="url(#face)" stroke="url(#bevel)" stroke-width="3.5" stroke-linejoin="round"></polygon></g></g><g transform="translate(90.95 623.23) scale(0.10487)"><path d="M10-630L494-630L494-542L304-542L304 0L197 0L197-542L10-542L10-630ZM682 0L579 0L579-472L682-472L682 0ZM631-589L631-589Q604-589 588-605.50Q572-622 572-647L572-647Q572-672 588-688.50Q604-705 631-705L631-705Q657-705 673.50-688.50Q690-672 690-647L690-647Q690-621 673.50-605Q657-589 631-589ZM929 0L828 0L828-711L929-711L929 0ZM1169 0L1068 0L1068-711L1169-711L1169 0ZM1564-472L1564-396L1430-396L1430-141Q1430-106 1446.50-94Q1463-82 1491-82L1491-82Q1511-82 1533.50-86.50Q1556-91 1573-97L1573-97L1589-21Q1569-13 1537.50-6.50Q1506 0 1471 0L1471 0Q1395 0 1361.50-31.50Q1328-63 1328-125L1328-125L1328-396L1256-396L1256-472L1328-472L1328-621L1430-621L1430-472L1564-472ZM1775 0L1673 0L1673-472L1751-472L1766-381Q1783-423 1821-451.50Q1859-480 1913-480L1913-480Q1937-480 1954.50-476Q1972-472 1986-465L1986-465L1967-379Q1955-385 1939.50-389Q1924-393 1904-393L1904-393Q1849-393 1812-355.50Q1775-318 1775-242L1775-242L1775 0ZM2461-268L2461-218L2130-218L2130-214Q2130-142 2172-105Q2214-68 2283-68L2283-68Q2321-68 2351.50-74.50Q2382-81 2413-95L2413-95L2433-20Q2404-7 2364 1.50Q2324 10 2276 10L2276 10Q2225 10 2179-4Q2133-18 2098.50-48Q2064-78 2044-124Q2024-170 2024-234L2024-234Q2024-289 2040.50-334.50Q2057-380 2087.50-412.50Q2118-445 2161.50-462.50Q2205-480 2258-480L2258-480Q2304-480 2341.50-465Q2379-450 2405.50-422.50Q2432-395 2446.50-355.50Q2461-316 2461-268L2461-268ZM2133-288L2355-290Q2355-314 2349-335Q2343-356 2331-371.50Q2319-387 2299.50-396.50Q2280-406 2253-406L2253-406Q2203-406 2171.50-374Q2140-342 2133-288L2133-288ZM2664-338L2664 0L2561 0L2561-472L2642-472L2656-409Q2691-443 2729.50-461.50Q2768-480 2817-480L2817-480Q2892-480 2933-439Q2974-398 2974-322L2974-322L2974 0L2871 0L2871-309Q2871-350 2850-374Q2829-398 2787-398L2787-398Q2755-398 2723.50-382.50Q2692-367 2664-338L2664-338ZM3416-438L3416-711L3519-711L3519 0L3438 0L3426-52L3422-52Q3396-22 3364-6Q3332 10 3281 10L3281 10Q3241 10 3204.50-5.50Q3168-21 3139.50-52Q3111-83 3094-129Q3077-175 3077-235L3077-235Q3077-291 3091.50-336Q3106-381 3133.50-413Q3161-445 3201-462.50Q3241-480 3292-480L3292-480Q3327-480 3360-469Q3393-458 3416-438L3416-438ZM3416-129L3416-355Q3374-403 3315-403L3315-403Q3289-403 3265-394Q3241-385 3222-365Q3203-345 3192-314Q3181-283 3181-238L3181-238Q3181-193 3191.50-161Q3202-129 3219-108Q3236-87 3258.50-77.50Q3281-68 3305-68L3305-68Q3341-68 3368.50-84Q3396-100 3416-129L3416-129Z" fill="#ECECEC"></path></g></svg>